<?xml version="1.0" encoding="UTF-8"?>
<svg xmlns="http://www.w3.org/2000/svg" xmlns:xlink="http://www.w3.org/1999/xlink" width="70pt" height="70pt" viewBox="0 0 70 70" version="1.1">
<g id="surface1">
<path style=" stroke:none;fill-rule:nonzero;fill:rgb(0%,0%,0%);fill-opacity:1;" d="M 33.90625 0.113281 L 36.09375 0.113281 L 36.09375 4.125 L 33.90625 4.125 Z M 33.90625 0.113281 "/>
<path style=" stroke:none;fill-rule:nonzero;fill:rgb(95.686275%,5.490196%,20.392157%);fill-opacity:1;" d="M 39.242188 40.601562 L 43.882812 35.960938 L 51.617188 43.695312 L 46.976562 48.335938 Z M 39.242188 40.601562 "/>
<path style=" stroke:none;fill-rule:nonzero;fill:rgb(95.686275%,5.490196%,20.392157%);fill-opacity:1;" d="M 30.757812 40.601562 L 23.023438 48.332031 L 18.386719 43.695312 L 18.734375 43.34375 L 26.117188 35.960938 Z M 30.757812 40.601562 "/>
<path style=" stroke:none;fill-rule:nonzero;fill:rgb(0%,0%,0%);fill-opacity:1;" d="M 36.09375 15.679688 L 43.601562 17.871094 L 44.214844 15.773438 L 36.09375 13.398438 L 36.09375 12.03125 L 33.90625 12.03125 L 33.90625 13.398438 L 25.785156 15.773438 L 26.398438 17.871094 L 33.90625 15.679688 L 33.90625 22.324219 L 26.351562 26.511719 L 27.414062 28.421875 L 33.90625 24.824219 L 33.90625 31.265625 L 27.664062 37.507812 L 29.210938 39.054688 L 33.90625 34.359375 L 33.90625 45.9375 L 36.09375 45.9375 L 36.09375 34.359375 L 40.789062 39.054688 L 42.335938 37.507812 L 36.09375 31.265625 L 36.09375 24.824219 L 42.585938 28.421875 L 43.648438 26.511719 L 36.09375 22.324219 Z M 36.09375 15.679688 "/>
<path style=" stroke:none;fill-rule:nonzero;fill:rgb(65.098039%,0%,11.764706%);fill-opacity:1;" d="M 4.375 48.125 L 9.84375 49.21875 L 5.46875 53.59375 Z M 4.375 48.125 "/>
<path style=" stroke:none;fill-rule:nonzero;fill:rgb(65.098039%,0%,11.764706%);fill-opacity:1;" d="M 7.65625 16.40625 L 10.9375 20.78125 L 6.5625 21.875 Z M 7.65625 16.40625 "/>
<path style=" stroke:none;fill-rule:nonzero;fill:rgb(65.098039%,0%,11.764706%);fill-opacity:1;" d="M 4.375 5.46875 L 8.75 4.375 L 8.75 8.75 Z M 4.375 5.46875 "/>
<path style=" stroke:none;fill-rule:nonzero;fill:rgb(95.686275%,5.490196%,20.392157%);fill-opacity:1;" d="M 68.90625 1.09375 L 64.53125 2.1875 L 67.8125 5.46875 Z M 68.90625 1.09375 "/>
<path style=" stroke:none;fill-rule:nonzero;fill:rgb(65.098039%,0%,11.764706%);fill-opacity:1;" d="M 60.15625 36.09375 L 65.625 37.1875 L 63.4375 31.71875 Z M 60.15625 36.09375 "/>
<path style=" stroke:none;fill-rule:nonzero;fill:rgb(65.098039%,0%,11.764706%);fill-opacity:1;" d="M 59.0625 48.125 L 63.4375 47.03125 L 62.34375 51.40625 Z M 59.0625 48.125 "/>
<path style=" stroke:none;fill-rule:nonzero;fill:rgb(95.686275%,5.490196%,20.392157%);fill-opacity:1;" d="M 53.59375 57.96875 L 57.96875 59.0625 L 54.6875 62.34375 Z M 53.59375 57.96875 "/>
<path style=" stroke:none;fill-rule:nonzero;fill:rgb(65.098039%,0%,11.764706%);fill-opacity:1;" d="M 18.59375 57.96875 L 15.3125 61.25 L 19.6875 62.34375 Z M 18.59375 57.96875 "/>
<path style=" stroke:none;fill-rule:nonzero;fill:rgb(65.098039%,0%,11.764706%);fill-opacity:1;" d="M 6.5625 68.90625 L 3.28125 64.53125 L 8.75 64.53125 Z M 6.5625 68.90625 "/>
<path style=" stroke:none;fill-rule:nonzero;fill:rgb(95.686275%,5.490196%,20.392157%);fill-opacity:1;" d="M 31.71875 45.9375 L 38.28125 45.9375 L 38.28125 56.875 L 31.71875 56.875 Z M 31.71875 45.9375 "/>
<path style=" stroke:none;fill-rule:nonzero;fill:rgb(100%,83.137255%,13.333333%);fill-opacity:1;" d="M 41.5625 61.25 L 43.75 66.71875 L 38.28125 65.625 L 35 68.90625 L 31.71875 65.625 L 26.25 66.71875 L 28.4375 61.25 L 24.0625 57.96875 L 28.4375 54.6875 L 26.25 50.3125 L 31.71875 51.40625 L 31.71875 56.875 L 38.28125 56.875 L 38.28125 51.40625 L 43.75 50.3125 L 41.5625 54.6875 L 45.9375 57.96875 Z M 41.5625 61.25 "/>
<path style=" stroke:none;fill-rule:nonzero;fill:rgb(100%,83.137255%,13.333333%);fill-opacity:1;" d="M 64.53125 21.875 L 66.71875 27.34375 L 61.25 26.25 L 57.96875 29.53125 L 54.6875 26.25 L 49.546875 27.277344 L 49.296875 27.136719 L 51.210938 22.367188 L 53.484375 23.035156 L 55.320312 16.746094 L 51.132812 15.519531 L 51.40625 15.3125 L 49.21875 10.9375 L 54.6875 12.03125 L 57.96875 7.65625 L 61.25 12.03125 L 66.71875 10.9375 L 64.53125 15.3125 L 68.90625 18.59375 Z M 64.53125 21.875 "/>
<path style=" stroke:none;fill-rule:nonzero;fill:rgb(100%,83.137255%,13.333333%);fill-opacity:1;" d="M 18.59375 38.28125 L 20.082031 42 L 18.734375 43.34375 L 15.3125 42.65625 L 12.03125 45.9375 L 8.75 42.65625 L 3.28125 43.75 L 5.46875 38.28125 L 1.09375 35 L 5.46875 31.71875 L 3.28125 27.34375 L 8.75 28.4375 L 12.03125 24.0625 L 15.3125 28.4375 L 20.070312 27.484375 L 15.726562 29.890625 L 18.898438 35.632812 L 21.734375 34.070312 L 22.96875 35 Z M 18.59375 38.28125 "/>
<path style=" stroke:none;fill-rule:nonzero;fill:rgb(65.098039%,0%,11.764706%);fill-opacity:1;" d="M 65.625 68.90625 L 68.90625 65.625 L 64.53125 64.53125 Z M 65.625 68.90625 "/>
<path style=" stroke:none;fill-rule:nonzero;fill:rgb(95.686275%,5.490196%,20.392157%);fill-opacity:1;" d="M 29.53125 7.65625 L 35 2.1875 L 40.46875 7.65625 L 35 13.125 Z M 29.53125 7.65625 "/>
<path style=" stroke:none;fill-rule:nonzero;fill:rgb(0%,0%,0%);fill-opacity:1;" d="M 48.445312 46.710938 L 49.992188 45.164062 L 52.179688 47.351562 L 50.632812 48.898438 Z M 48.445312 46.710938 "/>
<path style=" stroke:none;fill-rule:nonzero;fill:rgb(0%,0%,0%);fill-opacity:1;" d="M 17.820312 47.351562 L 20.007812 45.164062 L 21.554688 46.710938 L 19.367188 48.898438 Z M 17.820312 47.351562 "/>
<path style=" stroke:none;fill-rule:nonzero;fill:rgb(0%,0%,0%);fill-opacity:1;" d="M 14.539062 34.226562 L 17.820312 30.945312 L 19.367188 32.492188 L 16.085938 35.773438 Z M 14.539062 34.226562 "/>
<path style=" stroke:none;fill-rule:nonzero;fill:rgb(0%,0%,0%);fill-opacity:1;" d="M 33.90625 56.875 L 36.09375 56.875 L 36.09375 60.15625 L 33.90625 60.15625 Z M 33.90625 56.875 "/>
<path style=" stroke:none;fill-rule:nonzero;fill:rgb(95.686275%,5.490196%,20.392157%);fill-opacity:1;" d="M 14.671875 16.742188 L 25.171875 13.671875 L 27.015625 19.972656 L 16.515625 23.039062 Z M 14.671875 16.742188 "/>
<path style=" stroke:none;fill-rule:nonzero;fill:rgb(95.686275%,5.490196%,20.392157%);fill-opacity:1;" d="M 28.46875 30.339844 L 21.734375 34.070312 L 18.898438 35.632812 L 15.726562 29.890625 L 20.070312 27.484375 L 25.289062 24.597656 Z M 28.46875 30.339844 "/>
<path style=" stroke:none;fill-rule:nonzero;fill:rgb(95.686275%,5.490196%,20.392157%);fill-opacity:1;" d="M 54.273438 29.890625 L 51.101562 35.632812 L 41.53125 30.339844 L 44.710938 24.597656 L 49.296875 27.136719 L 49.546875 27.277344 Z M 54.273438 29.890625 "/>
<path style=" stroke:none;fill-rule:nonzero;fill:rgb(95.686275%,5.490196%,20.392157%);fill-opacity:1;" d="M 55.320312 16.746094 L 53.484375 23.035156 L 51.210938 22.367188 L 42.984375 19.972656 L 44.832031 13.671875 L 51.132812 15.519531 Z M 55.320312 16.746094 "/>
<path style=" stroke:none;fill-rule:nonzero;fill:rgb(0%,0%,0%);fill-opacity:1;" d="M 52.390625 42.921875 L 44.65625 35.1875 C 44.226562 34.761719 43.535156 34.761719 43.109375 35.1875 L 41.5625 36.734375 L 36.09375 31.265625 L 36.09375 24.824219 L 41.632812 27.894531 L 40.574219 29.8125 C 40.433594 30.0625 40.398438 30.363281 40.476562 30.644531 C 40.558594 30.921875 40.746094 31.15625 41 31.296875 L 50.570312 36.589844 C 50.734375 36.683594 50.914062 36.726562 51.101562 36.726562 C 51.199219 36.726562 51.300781 36.714844 51.402344 36.683594 C 51.679688 36.605469 51.917969 36.417969 52.058594 36.164062 L 53.152344 34.183594 L 55.433594 34.945312 L 56.128906 32.867188 L 54.226562 32.234375 L 55.230469 30.421875 C 55.523438 29.894531 55.328125 29.226562 54.800781 28.933594 L 52.6875 27.765625 L 54.328125 27.4375 L 57.195312 30.304688 C 57.410156 30.519531 57.6875 30.625 57.96875 30.625 C 58.25 30.625 58.527344 30.519531 58.742188 30.304688 L 61.609375 27.4375 L 66.503906 28.417969 C 66.894531 28.492188 67.300781 28.351562 67.558594 28.042969 C 67.816406 27.734375 67.882812 27.308594 67.734375 26.9375 L 65.855469 22.246094 L 69.5625 19.46875 C 69.835938 19.261719 70 18.9375 70 18.59375 C 70 18.25 69.835938 17.925781 69.5625 17.71875 L 65.917969 14.984375 L 67.695312 11.425781 C 67.882812 11.054688 67.839844 10.605469 67.585938 10.273438 C 67.332031 9.941406 66.914062 9.78125 66.503906 9.863281 L 61.710938 10.824219 L 58.84375 7 C 58.429688 6.449219 57.503906 6.449219 57.09375 7 C 57.078125 7.019531 57.0625 7.039062 57.046875 7.0625 C 56.5625 7.707031 56.078125 8.355469 55.589844 9.003906 C 55.300781 9.390625 55.011719 9.777344 54.71875 10.167969 C 54.4375 10.542969 54.222656 10.984375 53.679688 10.914062 C 52.550781 10.773438 51.457031 10.367188 50.363281 10.050781 L 49.433594 9.863281 C 49.027344 9.78125 48.601562 9.941406 48.347656 10.273438 C 48.09375 10.605469 48.054688 11.054688 48.238281 11.425781 L 49.472656 13.890625 L 45.140625 12.621094 C 44.5625 12.449219 43.953125 12.785156 43.78125 13.363281 L 43.164062 15.464844 L 36.230469 13.4375 L 41.242188 8.429688 C 41.667969 8.003906 41.667969 7.308594 41.242188 6.882812 L 36.09375 1.734375 L 36.09375 0 L 33.90625 0 L 33.90625 1.734375 L 28.757812 6.882812 C 28.332031 7.308594 28.332031 8.003906 28.757812 8.429688 L 33.765625 13.4375 L 26.835938 15.464844 L 26.222656 13.367188 C 26.140625 13.085938 25.949219 12.851562 25.695312 12.714844 C 25.441406 12.574219 25.144531 12.542969 24.863281 12.621094 L 14.367188 15.691406 C 13.785156 15.859375 13.453125 16.46875 13.621094 17.046875 L 14.199219 19.019531 L 12.636719 19.804688 L 13.613281 21.757812 L 14.824219 21.15625 L 15.464844 23.347656 C 15.542969 23.625 15.734375 23.859375 15.988281 24 C 16.148438 24.085938 16.332031 24.132812 16.511719 24.132812 C 16.617188 24.132812 16.71875 24.117188 16.820312 24.089844 L 27.316406 21.019531 C 27.898438 20.851562 28.230469 20.242188 28.0625 19.664062 L 27.449219 17.566406 L 33.90625 15.679688 L 33.90625 22.324219 L 27.304688 25.980469 L 26.246094 24.070312 C 25.949219 23.539062 25.285156 23.351562 24.757812 23.640625 L 19.695312 26.445312 L 15.773438 27.230469 L 12.90625 23.40625 C 12.492188 22.855469 11.570312 22.855469 11.15625 23.40625 L 8.289062 27.230469 L 3.496094 26.269531 C 3.089844 26.1875 2.664062 26.347656 2.410156 26.679688 C 2.160156 27.011719 2.117188 27.460938 2.304688 27.832031 L 4.082031 31.390625 L 0.4375 34.125 C 0.164062 34.332031 0 34.65625 0 35 C 0 35.34375 0.164062 35.667969 0.4375 35.875 L 4.140625 38.652344 L 2.265625 43.34375 C 2.117188 43.714844 2.183594 44.140625 2.441406 44.449219 C 2.695312 44.757812 3.105469 44.902344 3.496094 44.824219 L 8.390625 43.84375 L 11.257812 46.710938 C 11.472656 46.925781 11.75 47.03125 12.03125 47.03125 C 12.3125 47.03125 12.589844 46.925781 12.804688 46.710938 L 15.671875 43.84375 L 17.429688 44.199219 C 17.480469 44.292969 17.535156 44.390625 17.613281 44.46875 L 19.15625 46.015625 L 17.820312 47.351562 L 19.367188 48.898438 L 20.703125 47.5625 L 22.25 49.105469 C 22.464844 49.320312 22.742188 49.425781 23.023438 49.425781 C 23.300781 49.425781 23.582031 49.320312 23.796875 49.105469 L 31.527344 41.375 C 31.734375 41.167969 31.847656 40.890625 31.847656 40.601562 C 31.847656 40.308594 31.734375 40.03125 31.527344 39.828125 L 29.984375 38.28125 L 33.90625 34.359375 L 33.90625 44.84375 L 31.71875 44.84375 C 31.113281 44.84375 30.625 45.332031 30.625 45.9375 L 30.625 50.070312 L 26.464844 49.238281 C 26.054688 49.160156 25.632812 49.316406 25.378906 49.648438 C 25.125 49.980469 25.085938 50.429688 25.269531 50.800781 L 27.050781 54.359375 L 23.40625 57.09375 C 23.128906 57.300781 22.96875 57.625 22.96875 57.96875 C 22.96875 58.3125 23.128906 58.636719 23.40625 58.84375 L 27.109375 61.621094 L 25.234375 66.3125 C 25.085938 66.683594 25.152344 67.109375 25.410156 67.417969 C 25.664062 67.726562 26.070312 67.871094 26.464844 67.789062 L 31.359375 66.8125 L 34.226562 69.679688 C 34.441406 69.894531 34.71875 70 35 70 C 35.28125 70 35.558594 69.894531 35.773438 69.679688 L 38.640625 66.8125 L 43.535156 67.789062 C 43.929688 67.867188 44.332031 67.726562 44.589844 67.417969 C 44.847656 67.109375 44.914062 66.683594 44.765625 66.3125 L 42.886719 61.621094 L 46.59375 58.84375 C 46.867188 58.636719 47.03125 58.3125 47.03125 57.96875 C 47.03125 57.625 46.867188 57.300781 46.59375 57.09375 L 42.949219 54.359375 L 44.726562 50.800781 C 44.914062 50.429688 44.871094 49.980469 44.617188 49.648438 C 44.367188 49.316406 43.945312 49.160156 43.535156 49.238281 L 39.375 50.070312 L 39.375 45.9375 C 39.375 45.332031 38.886719 44.84375 38.28125 44.84375 L 36.09375 44.84375 L 36.09375 34.359375 L 40.015625 38.28125 L 38.46875 39.828125 C 38.042969 40.253906 38.042969 40.949219 38.46875 41.375 L 46.203125 49.109375 C 46.40625 49.3125 46.6875 49.429688 46.976562 49.429688 C 47.265625 49.429688 47.542969 49.3125 47.75 49.109375 L 49.296875 47.5625 L 50.632812 48.898438 L 52.179688 47.351562 L 50.84375 46.015625 L 52.390625 44.46875 C 52.816406 44.042969 52.816406 43.347656 52.390625 42.921875 Z M 17.257812 21.683594 L 16.027344 17.484375 L 24.429688 15.027344 L 25.65625 19.226562 Z M 41.773438 51.824219 L 40.585938 54.199219 C 40.347656 54.671875 40.484375 55.246094 40.90625 55.5625 L 44.113281 57.96875 L 40.90625 60.375 C 40.511719 60.671875 40.363281 61.195312 40.546875 61.65625 L 41.984375 65.25 L 38.496094 64.550781 C 38.136719 64.480469 37.765625 64.59375 37.507812 64.851562 L 35 67.359375 L 32.492188 64.851562 C 32.285156 64.644531 32.007812 64.53125 31.71875 64.53125 C 31.648438 64.53125 31.574219 64.539062 31.503906 64.550781 L 28.015625 65.25 L 29.453125 61.65625 C 29.636719 61.195312 29.488281 60.671875 29.09375 60.375 L 25.886719 57.96875 L 29.09375 55.5625 C 29.515625 55.246094 29.652344 54.671875 29.414062 54.199219 L 28.226562 51.824219 L 30.625 52.304688 L 30.625 56.875 C 30.625 57.480469 31.113281 57.96875 31.71875 57.96875 L 33.90625 57.96875 L 33.90625 60.15625 L 36.09375 60.15625 L 36.09375 57.96875 L 38.28125 57.96875 C 38.886719 57.96875 39.375 57.480469 39.375 56.875 L 39.375 52.304688 Z M 37.1875 47.03125 L 37.1875 55.78125 L 32.8125 55.78125 L 32.8125 47.03125 Z M 50.671875 34.148438 L 43.015625 29.914062 L 45.136719 26.085938 L 48.859375 28.144531 L 49.007812 28.230469 C 49.011719 28.230469 49.015625 28.230469 49.015625 28.234375 L 52.785156 30.320312 Z M 51.265625 12.589844 C 52.011719 12.808594 52.742188 13.101562 53.519531 13.203125 C 54.152344 13.28125 55.144531 13.25 55.5625 12.6875 L 57.96875 9.480469 L 60.375 12.6875 C 60.628906 13.023438 61.054688 13.183594 61.464844 13.105469 L 64.742188 12.449219 L 63.554688 14.824219 C 63.316406 15.296875 63.453125 15.871094 63.875 16.1875 L 67.082031 18.59375 L 63.875 21 C 63.480469 21.296875 63.332031 21.820312 63.515625 22.28125 L 64.953125 25.875 L 61.464844 25.175781 C 61.105469 25.105469 60.734375 25.21875 60.476562 25.476562 L 57.96875 27.984375 L 55.460938 25.476562 C 55.253906 25.269531 54.976562 25.15625 54.6875 25.15625 C 54.617188 25.15625 54.542969 25.164062 54.472656 25.175781 L 50.980469 25.875 L 51.855469 23.699219 L 53.175781 24.082031 C 53.277344 24.113281 53.382812 24.128906 53.484375 24.128906 C 53.511719 24.128906 53.539062 24.121094 53.5625 24.117188 C 53.589844 24.117188 53.617188 24.113281 53.644531 24.109375 C 53.769531 24.089844 53.894531 24.054688 54.011719 23.992188 C 54.265625 23.855469 54.453125 23.621094 54.535156 23.339844 L 55.175781 21.152344 L 56.386719 21.757812 L 57.363281 19.800781 L 55.796875 19.019531 L 56.371094 17.050781 C 56.539062 16.472656 56.207031 15.863281 55.628906 15.695312 L 52.339844 14.730469 Z M 45.574219 15.03125 L 50.816406 16.566406 C 50.820312 16.566406 50.820312 16.570312 50.828125 16.570312 L 53.964844 17.488281 L 52.742188 21.675781 L 51.515625 21.316406 C 51.511719 21.316406 51.511719 21.316406 51.507812 21.316406 L 44.34375 19.226562 Z M 42.023438 20.496094 C 42.164062 20.75 42.398438 20.941406 42.679688 21.023438 L 49.746094 23.082031 L 48.742188 25.578125 L 45.242188 23.640625 C 44.714844 23.351562 44.046875 23.539062 43.753906 24.070312 L 42.695312 25.984375 L 36.09375 22.324219 L 36.09375 15.679688 L 42.550781 17.566406 L 41.933594 19.664062 C 41.851562 19.941406 41.886719 20.242188 42.023438 20.496094 Z M 35 3.734375 L 38.921875 7.65625 L 35 11.578125 L 31.078125 7.65625 Z M 24.859375 26.085938 L 26.984375 29.914062 L 19.328125 34.148438 L 17.214844 30.320312 Z M 15.527344 41.582031 C 15.171875 41.511719 14.796875 41.625 14.539062 41.882812 L 12.03125 44.390625 L 9.523438 41.882812 C 9.316406 41.675781 9.039062 41.5625 8.75 41.5625 C 8.679688 41.5625 8.605469 41.570312 8.535156 41.582031 L 5.046875 42.28125 L 6.484375 38.6875 C 6.667969 38.226562 6.519531 37.703125 6.125 37.40625 L 2.917969 35 L 6.125 32.59375 C 6.546875 32.277344 6.683594 31.703125 6.445312 31.230469 L 5.257812 28.855469 L 8.535156 29.511719 C 8.945312 29.589844 9.371094 29.429688 9.625 29.09375 L 12.03125 25.886719 L 14.4375 29.09375 C 14.527344 29.210938 14.636719 29.308594 14.761719 29.382812 C 14.730469 29.4375 14.714844 29.496094 14.695312 29.554688 C 14.6875 29.574219 14.679688 29.589844 14.675781 29.605469 C 14.644531 29.722656 14.636719 29.84375 14.644531 29.96875 C 14.644531 29.996094 14.648438 30.023438 14.65625 30.050781 C 14.671875 30.179688 14.707031 30.304688 14.769531 30.421875 L 16.042969 32.722656 L 14.539062 34.226562 L 16.085938 35.773438 L 17.144531 34.714844 L 17.941406 36.164062 C 17.992188 36.25 18.050781 36.328125 18.117188 36.398438 C 18.140625 36.421875 18.167969 36.4375 18.195312 36.460938 C 18.242188 36.5 18.289062 36.542969 18.339844 36.574219 C 18.375 36.59375 18.410156 36.601562 18.445312 36.621094 C 18.496094 36.640625 18.542969 36.667969 18.597656 36.683594 C 18.636719 36.695312 18.675781 36.695312 18.714844 36.703125 C 18.757812 36.710938 18.800781 36.722656 18.84375 36.726562 L 17.9375 37.40625 C 17.542969 37.703125 17.394531 38.226562 17.578125 38.6875 L 18.796875 41.738281 L 18.375 42.15625 Z M 23.023438 46.785156 L 19.933594 43.695312 L 20.855469 42.773438 C 20.855469 42.773438 20.855469 42.773438 20.855469 42.769531 L 26.117188 37.507812 L 29.210938 40.601562 Z M 28.4375 36.734375 L 26.890625 35.1875 C 26.480469 34.777344 25.753906 34.777344 25.34375 35.1875 L 20.480469 40.054688 L 19.921875 38.652344 L 23.625 35.875 C 23.898438 35.667969 24.0625 35.34375 24.0625 35 C 24.0625 34.699219 23.921875 34.429688 23.707031 34.222656 L 29 31.296875 C 29.253906 31.15625 29.441406 30.921875 29.523438 30.644531 C 29.601562 30.363281 29.566406 30.0625 29.425781 29.8125 L 28.367188 27.894531 L 33.90625 24.824219 L 33.90625 31.265625 Z M 46.976562 46.789062 L 40.789062 40.601562 L 43.882812 37.507812 L 50.070312 43.695312 Z M 46.976562 46.789062 "/>
<path style=" stroke:none;fill-rule:nonzero;fill:rgb(0%,0%,0%);fill-opacity:1;" d="M 10.058594 48.144531 L 4.589844 47.050781 C 4.230469 46.980469 3.859375 47.09375 3.601562 47.351562 C 3.34375 47.609375 3.230469 47.980469 3.300781 48.339844 L 4.394531 53.808594 C 4.476562 54.203125 4.765625 54.523438 5.152344 54.640625 C 5.257812 54.671875 5.363281 54.6875 5.46875 54.6875 C 5.753906 54.6875 6.035156 54.574219 6.242188 54.367188 L 10.617188 49.992188 C 10.902344 49.707031 11.007812 49.289062 10.890625 48.902344 C 10.773438 48.515625 10.453125 48.226562 10.058594 48.144531 Z M 6.140625 51.375 L 5.769531 49.519531 L 7.625 49.890625 Z M 6.140625 51.375 "/>
<path style=" stroke:none;fill-rule:nonzero;fill:rgb(0%,0%,0%);fill-opacity:1;" d="M 7.414062 15.339844 C 6.992188 15.433594 6.667969 15.769531 6.582031 16.191406 L 5.488281 21.660156 C 5.417969 22.027344 5.535156 22.40625 5.808594 22.667969 C 6.011719 22.863281 6.285156 22.96875 6.5625 22.96875 C 6.652344 22.96875 6.738281 22.957031 6.828125 22.9375 L 11.203125 21.84375 C 11.558594 21.753906 11.84375 21.492188 11.96875 21.148438 C 12.089844 20.800781 12.03125 20.417969 11.8125 20.125 L 8.53125 15.75 C 8.273438 15.40625 7.839844 15.242188 7.414062 15.339844 Z M 7.972656 20.394531 L 8.25 19.019531 L 9.074219 20.121094 Z M 7.972656 20.394531 "/>
<path style=" stroke:none;fill-rule:nonzero;fill:rgb(0%,0%,0%);fill-opacity:1;" d="M 8.09375 9.625 C 8.285156 9.769531 8.519531 9.84375 8.75 9.84375 C 8.917969 9.84375 9.085938 9.804688 9.238281 9.726562 C 9.609375 9.542969 9.84375 9.164062 9.84375 8.75 L 9.84375 4.375 C 9.84375 4.039062 9.6875 3.71875 9.421875 3.511719 C 9.15625 3.304688 8.808594 3.230469 8.484375 3.3125 L 4.109375 4.40625 C 3.699219 4.511719 3.386719 4.839844 3.300781 5.253906 C 3.21875 5.664062 3.382812 6.089844 3.71875 6.34375 Z M 7.65625 5.777344 L 7.65625 6.5625 L 6.871094 5.972656 Z M 7.65625 5.777344 "/>
<path style=" stroke:none;fill-rule:nonzero;fill:rgb(0%,0%,0%);fill-opacity:1;" d="M 67.039062 6.242188 C 67.246094 6.449219 67.527344 6.5625 67.8125 6.5625 C 67.910156 6.5625 68.007812 6.550781 68.105469 6.523438 C 68.484375 6.417969 68.777344 6.117188 68.875 5.734375 L 69.96875 1.359375 C 70.0625 0.988281 69.949219 0.59375 69.679688 0.320312 C 69.410156 0.046875 69.011719 -0.0585938 68.640625 0.03125 L 64.265625 1.125 C 63.882812 1.222656 63.582031 1.515625 63.476562 1.894531 C 63.371094 2.273438 63.480469 2.683594 63.757812 2.960938 Z M 67.402344 2.597656 L 67.21875 3.328125 L 66.671875 2.78125 Z M 67.402344 2.597656 "/>
<path style=" stroke:none;fill-rule:nonzero;fill:rgb(0%,0%,0%);fill-opacity:1;" d="M 63.582031 30.632812 C 63.179688 30.578125 62.800781 30.746094 62.5625 31.0625 L 59.28125 35.4375 C 59.054688 35.738281 59 36.132812 59.132812 36.484375 C 59.269531 36.835938 59.574219 37.09375 59.941406 37.167969 L 65.410156 38.261719 C 65.480469 38.273438 65.554688 38.28125 65.625 38.28125 C 65.945312 38.28125 66.257812 38.140625 66.464844 37.886719 C 66.722656 37.578125 66.789062 37.152344 66.640625 36.78125 L 64.453125 31.3125 C 64.304688 30.945312 63.972656 30.6875 63.582031 30.632812 Z M 62.074219 35.363281 L 63.144531 33.933594 L 63.859375 35.71875 Z M 62.074219 35.363281 "/>
<path style=" stroke:none;fill-rule:nonzero;fill:rgb(0%,0%,0%);fill-opacity:1;" d="M 64.210938 46.257812 C 63.941406 45.984375 63.542969 45.878906 63.171875 45.96875 L 58.796875 47.0625 C 58.414062 47.160156 58.113281 47.453125 58.007812 47.832031 C 57.902344 48.210938 58.011719 48.621094 58.289062 48.898438 L 61.570312 52.179688 C 61.777344 52.386719 62.058594 52.5 62.34375 52.5 C 62.441406 52.5 62.539062 52.488281 62.636719 52.460938 C 63.015625 52.355469 63.308594 52.054688 63.40625 51.671875 L 64.5 47.296875 C 64.59375 46.925781 64.480469 46.53125 64.210938 46.257812 Z M 61.75 49.265625 L 61.203125 48.71875 L 61.933594 48.535156 Z M 61.75 49.265625 "/>
<path style=" stroke:none;fill-rule:nonzero;fill:rgb(0%,0%,0%);fill-opacity:1;" d="M 58.234375 58 L 53.859375 56.90625 C 53.488281 56.816406 53.089844 56.921875 52.820312 57.195312 C 52.550781 57.46875 52.4375 57.863281 52.53125 58.234375 L 53.625 62.609375 C 53.722656 62.992188 54.015625 63.292969 54.394531 63.398438 C 54.492188 63.425781 54.589844 63.4375 54.6875 63.4375 C 54.972656 63.4375 55.253906 63.324219 55.460938 63.117188 L 58.742188 59.835938 C 59.019531 59.558594 59.128906 59.148438 59.023438 58.769531 C 58.917969 58.390625 58.617188 58.097656 58.234375 58 Z M 55.28125 60.203125 L 55.097656 59.472656 L 55.828125 59.65625 Z M 55.28125 60.203125 "/>
<path style=" stroke:none;fill-rule:nonzero;fill:rgb(0%,0%,0%);fill-opacity:1;" d="M 19.65625 57.703125 C 19.558594 57.320312 19.265625 57.019531 18.886719 56.914062 C 18.507812 56.808594 18.097656 56.917969 17.820312 57.195312 L 14.539062 60.476562 C 14.261719 60.753906 14.152344 61.164062 14.257812 61.542969 C 14.363281 61.921875 14.664062 62.214844 15.046875 62.3125 L 19.421875 63.40625 C 19.511719 63.425781 19.597656 63.4375 19.6875 63.4375 C 19.972656 63.4375 20.253906 63.324219 20.460938 63.117188 C 20.730469 62.84375 20.84375 62.449219 20.75 62.078125 Z M 17.453125 60.65625 L 18 60.109375 L 18.183594 60.839844 Z M 17.453125 60.65625 "/>
<path style=" stroke:none;fill-rule:nonzero;fill:rgb(0%,0%,0%);fill-opacity:1;" d="M 8.75 63.4375 L 3.28125 63.4375 C 2.867188 63.4375 2.488281 63.671875 2.304688 64.042969 C 2.117188 64.414062 2.15625 64.855469 2.40625 65.1875 L 5.6875 69.5625 C 5.894531 69.839844 6.21875 70 6.5625 70 C 6.59375 70 6.628906 70 6.660156 69.996094 C 7.039062 69.960938 7.371094 69.734375 7.539062 69.394531 L 9.726562 65.019531 C 9.898438 64.679688 9.878906 64.277344 9.679688 63.957031 C 9.480469 63.632812 9.128906 63.4375 8.75 63.4375 Z M 6.375 66.835938 L 5.46875 65.625 L 6.980469 65.625 Z M 6.375 66.835938 "/>
<path style=" stroke:none;fill-rule:nonzero;fill:rgb(0%,0%,0%);fill-opacity:1;" d="M 69.171875 64.5625 L 64.796875 63.46875 C 64.425781 63.378906 64.03125 63.484375 63.757812 63.757812 C 63.488281 64.03125 63.375 64.425781 63.46875 64.796875 L 64.5625 69.171875 C 64.660156 69.554688 64.953125 69.855469 65.332031 69.960938 C 65.429688 69.988281 65.527344 70 65.625 70 C 65.910156 70 66.191406 69.886719 66.398438 69.679688 L 69.679688 66.398438 C 69.957031 66.121094 70.066406 65.710938 69.960938 65.332031 C 69.855469 64.953125 69.554688 64.660156 69.171875 64.5625 Z M 66.21875 66.765625 L 66.035156 66.035156 L 66.765625 66.21875 Z M 66.21875 66.765625 "/>
</g>
</svg>
