<?xml version="1.0" encoding="UTF-8"?>
<svg xmlns="http://www.w3.org/2000/svg" xmlns:xlink="http://www.w3.org/1999/xlink" width="70pt" height="70pt" viewBox="0 0 70 70" version="1.1">
<g id="surface1">
<path style=" stroke:none;fill-rule:nonzero;fill:rgb(94.901961%,34.509804%,9.019608%);fill-opacity:1;" d="M 9.96875 50.355469 C 9.40625 50.355469 8.945312 50.8125 8.945312 51.378906 L 8.945312 52.070312 C 8.945312 52.636719 9.40625 53.097656 9.96875 53.097656 C 10.535156 53.097656 10.996094 52.636719 10.996094 52.070312 L 10.996094 51.378906 C 10.996094 50.8125 10.535156 50.355469 9.96875 50.355469 Z M 9.96875 50.355469 "/>
<path style=" stroke:none;fill-rule:nonzero;fill:rgb(94.901961%,34.509804%,9.019608%);fill-opacity:1;" d="M 9.96875 60.550781 C 9.40625 60.550781 8.945312 61.007812 8.945312 61.574219 L 8.945312 62.265625 C 8.945312 62.832031 9.40625 63.292969 9.96875 63.292969 C 10.535156 63.292969 10.996094 62.832031 10.996094 62.265625 L 10.996094 61.574219 C 10.996094 61.007812 10.535156 60.550781 9.96875 60.550781 Z M 9.96875 60.550781 "/>
<path style=" stroke:none;fill-rule:nonzero;fill:rgb(94.901961%,34.509804%,9.019608%);fill-opacity:1;" d="M 13.335938 54.488281 C 13.597656 54.488281 13.859375 54.386719 14.058594 54.1875 L 14.546875 53.699219 C 14.949219 53.300781 14.949219 52.652344 14.550781 52.25 C 14.148438 51.847656 13.5 51.847656 13.097656 52.25 L 12.609375 52.738281 C 12.210938 53.136719 12.210938 53.785156 12.609375 54.1875 C 12.808594 54.386719 13.074219 54.488281 13.335938 54.488281 Z M 13.335938 54.488281 "/>
<path style=" stroke:none;fill-rule:nonzero;fill:rgb(94.901961%,34.509804%,9.019608%);fill-opacity:1;" d="M 5.882812 59.457031 L 5.394531 59.945312 C 4.992188 60.347656 4.992188 60.996094 5.390625 61.394531 C 5.59375 61.597656 5.855469 61.695312 6.117188 61.695312 C 6.378906 61.695312 6.640625 61.597656 6.84375 61.398438 L 7.332031 60.910156 C 7.730469 60.507812 7.730469 59.859375 7.332031 59.460938 C 6.929688 59.058594 6.28125 59.058594 5.882812 59.457031 Z M 5.882812 59.457031 "/>
<path style=" stroke:none;fill-rule:nonzero;fill:rgb(94.901961%,34.509804%,9.019608%);fill-opacity:1;" d="M 15.417969 55.796875 L 14.730469 55.796875 C 14.164062 55.796875 13.703125 56.257812 13.703125 56.824219 C 13.703125 57.390625 14.164062 57.847656 14.730469 57.847656 L 15.417969 57.847656 C 15.984375 57.847656 16.445312 57.390625 16.445312 56.824219 C 16.445312 56.257812 15.984375 55.796875 15.417969 55.796875 Z M 15.417969 55.796875 "/>
<path style=" stroke:none;fill-rule:nonzero;fill:rgb(94.901961%,34.509804%,9.019608%);fill-opacity:1;" d="M 6.238281 56.824219 C 6.238281 56.257812 5.777344 55.796875 5.210938 55.796875 L 4.523438 55.796875 C 3.957031 55.796875 3.496094 56.257812 3.496094 56.824219 C 3.496094 57.390625 3.957031 57.847656 4.523438 57.847656 L 5.210938 57.847656 C 5.777344 57.847656 6.238281 57.390625 6.238281 56.824219 Z M 6.238281 56.824219 "/>
<path style=" stroke:none;fill-rule:nonzero;fill:rgb(94.901961%,34.509804%,9.019608%);fill-opacity:1;" d="M 14.058594 59.457031 C 13.660156 59.058594 13.007812 59.058594 12.609375 59.460938 C 12.210938 59.859375 12.210938 60.507812 12.609375 60.910156 L 13.097656 61.398438 C 13.300781 61.597656 13.5625 61.695312 13.824219 61.695312 C 14.085938 61.695312 14.347656 61.597656 14.550781 61.394531 C 14.949219 60.996094 14.949219 60.347656 14.546875 59.945312 Z M 14.058594 59.457031 "/>
<path style=" stroke:none;fill-rule:nonzero;fill:rgb(94.901961%,34.509804%,9.019608%);fill-opacity:1;" d="M 6.84375 52.25 C 6.441406 51.847656 5.792969 51.847656 5.390625 52.25 C 4.992188 52.652344 4.992188 53.300781 5.394531 53.699219 L 5.882812 54.1875 C 6.082031 54.386719 6.34375 54.488281 6.605469 54.488281 C 6.867188 54.488281 7.132812 54.386719 7.332031 54.1875 C 7.730469 53.785156 7.730469 53.136719 7.332031 52.738281 Z M 6.84375 52.25 "/>
<path style=" stroke:none;fill-rule:nonzero;fill:rgb(94.901961%,34.509804%,9.019608%);fill-opacity:1;" d="M 57.453125 0.503906 C 56.890625 0.503906 56.429688 0.960938 56.429688 1.527344 L 56.429688 2.21875 C 56.429688 2.785156 56.890625 3.242188 57.453125 3.242188 C 58.019531 3.242188 58.480469 2.785156 58.480469 2.21875 L 58.480469 1.527344 C 58.480469 0.960938 58.019531 0.503906 57.453125 0.503906 Z M 57.453125 0.503906 "/>
<path style=" stroke:none;fill-rule:nonzero;fill:rgb(94.901961%,34.509804%,9.019608%);fill-opacity:1;" d="M 57.453125 10.699219 C 56.890625 10.699219 56.429688 11.15625 56.429688 11.722656 L 56.429688 12.414062 C 56.429688 12.980469 56.890625 13.4375 57.453125 13.4375 C 58.019531 13.4375 58.480469 12.980469 58.480469 12.414062 L 58.480469 11.722656 C 58.480469 11.15625 58.019531 10.699219 57.453125 10.699219 Z M 57.453125 10.699219 "/>
<path style=" stroke:none;fill-rule:nonzero;fill:rgb(94.901961%,34.509804%,9.019608%);fill-opacity:1;" d="M 60.820312 4.636719 C 61.082031 4.636719 61.34375 4.535156 61.542969 4.335938 L 62.03125 3.847656 C 62.433594 3.449219 62.433594 2.796875 62.035156 2.398438 C 61.632812 1.996094 60.984375 1.996094 60.582031 2.398438 L 60.09375 2.882812 C 59.695312 3.285156 59.695312 3.933594 60.09375 4.335938 C 60.292969 4.535156 60.558594 4.636719 60.820312 4.636719 Z M 60.820312 4.636719 "/>
<path style=" stroke:none;fill-rule:nonzero;fill:rgb(94.901961%,34.509804%,9.019608%);fill-opacity:1;" d="M 53.367188 9.605469 L 52.878906 10.09375 C 52.476562 10.492188 52.476562 11.144531 52.875 11.542969 C 53.078125 11.742188 53.339844 11.84375 53.601562 11.84375 C 53.863281 11.84375 54.125 11.746094 54.328125 11.542969 L 54.816406 11.054688 C 55.214844 10.65625 55.214844 10.007812 54.816406 9.605469 C 54.414062 9.207031 53.765625 9.207031 53.367188 9.605469 Z M 53.367188 9.605469 "/>
<path style=" stroke:none;fill-rule:nonzero;fill:rgb(94.901961%,34.509804%,9.019608%);fill-opacity:1;" d="M 62.902344 5.945312 L 62.214844 5.945312 C 61.648438 5.945312 61.1875 6.40625 61.1875 6.96875 C 61.1875 7.535156 61.648438 7.996094 62.214844 7.996094 L 62.902344 7.996094 C 63.46875 7.996094 63.929688 7.535156 63.929688 6.96875 C 63.929688 6.40625 63.46875 5.945312 62.902344 5.945312 Z M 62.902344 5.945312 "/>
<path style=" stroke:none;fill-rule:nonzero;fill:rgb(94.901961%,34.509804%,9.019608%);fill-opacity:1;" d="M 53.722656 6.96875 C 53.722656 6.40625 53.261719 5.945312 52.695312 5.945312 L 52.007812 5.945312 C 51.441406 5.945312 50.980469 6.40625 50.980469 6.96875 C 50.980469 7.535156 51.441406 7.996094 52.007812 7.996094 L 52.695312 7.996094 C 53.261719 7.996094 53.722656 7.535156 53.722656 6.96875 Z M 53.722656 6.96875 "/>
<path style=" stroke:none;fill-rule:nonzero;fill:rgb(94.901961%,34.509804%,9.019608%);fill-opacity:1;" d="M 61.542969 9.605469 C 61.144531 9.207031 60.492188 9.207031 60.09375 9.605469 C 59.695312 10.007812 59.695312 10.65625 60.09375 11.054688 L 60.582031 11.542969 C 60.785156 11.746094 61.046875 11.84375 61.308594 11.84375 C 61.570312 11.84375 61.832031 11.742188 62.035156 11.542969 C 62.433594 11.144531 62.433594 10.492188 62.03125 10.09375 Z M 61.542969 9.605469 "/>
<path style=" stroke:none;fill-rule:nonzero;fill:rgb(94.901961%,34.509804%,9.019608%);fill-opacity:1;" d="M 53.367188 4.335938 C 53.566406 4.535156 53.828125 4.636719 54.089844 4.636719 C 54.351562 4.636719 54.617188 4.535156 54.816406 4.335938 C 55.214844 3.933594 55.214844 3.285156 54.816406 2.882812 L 54.328125 2.398438 C 53.925781 1.996094 53.277344 1.996094 52.875 2.398438 C 52.476562 2.796875 52.476562 3.449219 52.878906 3.847656 Z M 53.367188 4.335938 "/>
<path style=" stroke:none;fill-rule:nonzero;fill:rgb(98.823529%,63.921569%,3.529412%);fill-opacity:1;" d="M 35.746094 0.441406 L 37.996094 4.554688 C 38.074219 4.695312 38.191406 4.8125 38.332031 4.890625 L 42.445312 7.140625 C 43.035156 7.464844 43.035156 8.3125 42.445312 8.632812 L 38.332031 10.882812 C 38.191406 10.960938 38.074219 11.078125 37.996094 11.21875 L 35.746094 15.332031 C 35.421875 15.921875 34.578125 15.921875 34.253906 15.332031 L 32.003906 11.21875 C 31.925781 11.078125 31.808594 10.960938 31.667969 10.882812 L 27.554688 8.632812 C 26.964844 8.3125 26.964844 7.464844 27.554688 7.140625 L 31.667969 4.890625 C 31.808594 4.8125 31.925781 4.695312 32.003906 4.554688 L 34.253906 0.441406 C 34.578125 -0.148438 35.421875 -0.148438 35.746094 0.441406 Z M 35.746094 0.441406 "/>
<path style=" stroke:none;fill-rule:nonzero;fill:rgb(99.215686%,55.686275%,3.529412%);fill-opacity:1;" d="M 42.445312 7.140625 L 38.332031 4.890625 C 38.191406 4.8125 38.074219 4.695312 37.996094 4.554688 L 35.746094 0.441406 C 35.421875 -0.148438 34.578125 -0.148438 34.253906 0.441406 L 33.242188 2.292969 L 33.933594 3.558594 C 34.367188 4.351562 35.019531 5.003906 35.8125 5.4375 C 37.75 6.496094 37.75 9.277344 35.8125 10.335938 C 35.019531 10.769531 34.367188 11.421875 33.933594 12.214844 L 33.242188 13.480469 L 34.253906 15.332031 C 34.578125 15.921875 35.421875 15.921875 35.746094 15.332031 L 37.996094 11.21875 C 38.074219 11.078125 38.191406 10.960938 38.332031 10.882812 L 42.445312 8.632812 C 43.035156 8.3125 43.035156 7.464844 42.445312 7.140625 Z M 42.445312 7.140625 "/>
<path style=" stroke:none;fill-rule:nonzero;fill:rgb(98.823529%,63.921569%,3.529412%);fill-opacity:1;" d="M 8.632812 12.421875 L 10.882812 16.535156 C 10.960938 16.675781 11.078125 16.792969 11.21875 16.871094 L 15.332031 19.121094 C 15.921875 19.441406 15.921875 20.289062 15.332031 20.613281 L 11.21875 22.863281 C 11.078125 22.941406 10.960938 23.058594 10.882812 23.199219 L 8.632812 27.3125 C 8.3125 27.902344 7.464844 27.902344 7.140625 27.3125 L 4.890625 23.199219 C 4.8125 23.058594 4.695312 22.941406 4.554688 22.863281 L 0.441406 20.613281 C -0.148438 20.289062 -0.148438 19.441406 0.441406 19.121094 L 4.554688 16.871094 C 4.695312 16.792969 4.8125 16.675781 4.890625 16.535156 L 7.140625 12.421875 C 7.464844 11.832031 8.3125 11.832031 8.632812 12.421875 Z M 8.632812 12.421875 "/>
<path style=" stroke:none;fill-rule:nonzero;fill:rgb(99.215686%,55.686275%,3.529412%);fill-opacity:1;" d="M 15.332031 19.121094 L 11.21875 16.871094 C 11.078125 16.792969 10.960938 16.675781 10.882812 16.535156 L 8.632812 12.421875 C 8.3125 11.832031 7.464844 11.832031 7.140625 12.421875 L 6.128906 14.273438 L 6.820312 15.539062 C 7.253906 16.332031 7.90625 16.984375 8.699219 17.417969 C 10.636719 18.476562 10.636719 21.257812 8.699219 22.316406 C 7.90625 22.75 7.253906 23.402344 6.820312 24.195312 L 6.128906 25.460938 L 7.140625 27.3125 C 7.464844 27.902344 8.3125 27.902344 8.632812 27.3125 L 10.882812 23.199219 C 10.960938 23.058594 11.078125 22.941406 11.21875 22.863281 L 15.332031 20.613281 C 15.921875 20.289062 15.921875 19.441406 15.332031 19.121094 Z M 15.332031 19.121094 "/>
<path style=" stroke:none;fill-rule:nonzero;fill:rgb(98.823529%,63.921569%,3.529412%);fill-opacity:1;" d="M 62.859375 18.113281 L 65.109375 22.222656 C 65.1875 22.367188 65.304688 22.484375 65.445312 22.5625 L 69.558594 24.8125 C 70.148438 25.132812 70.148438 25.980469 69.558594 26.304688 L 65.445312 28.554688 C 65.304688 28.628906 65.1875 28.75 65.109375 28.890625 L 62.859375 33.003906 C 62.535156 33.59375 61.6875 33.59375 61.367188 33.003906 L 59.117188 28.890625 C 59.039062 28.75 58.921875 28.628906 58.78125 28.554688 L 54.667969 26.304688 C 54.078125 25.980469 54.078125 25.132812 54.667969 24.8125 L 58.78125 22.5625 C 58.921875 22.484375 59.039062 22.367188 59.117188 22.222656 L 61.367188 18.113281 C 61.6875 17.523438 62.535156 17.523438 62.859375 18.113281 Z M 62.859375 18.113281 "/>
<path style=" stroke:none;fill-rule:nonzero;fill:rgb(99.215686%,55.686275%,3.529412%);fill-opacity:1;" d="M 69.558594 24.8125 L 65.445312 22.5625 C 65.304688 22.484375 65.1875 22.367188 65.109375 22.226562 L 62.859375 18.113281 C 62.535156 17.523438 61.6875 17.523438 61.367188 18.113281 L 60.355469 19.964844 L 61.046875 21.230469 C 61.480469 22.023438 62.132812 22.675781 62.925781 23.109375 C 64.859375 24.167969 64.859375 26.949219 62.925781 28.007812 C 62.132812 28.441406 61.480469 29.09375 61.046875 29.886719 L 60.355469 31.152344 L 61.367188 33.003906 C 61.6875 33.59375 62.535156 33.59375 62.859375 33.003906 L 65.109375 28.890625 C 65.1875 28.75 65.304688 28.632812 65.445312 28.554688 L 69.558594 26.304688 C 70.148438 25.980469 70.148438 25.132812 69.558594 24.8125 Z M 69.558594 24.8125 "/>
<path style=" stroke:none;fill-rule:nonzero;fill:rgb(94.509804%,20.784314%,33.333333%);fill-opacity:1;" d="M 41.222656 69.890625 C 41.378906 66.535156 42.578125 53.523438 51.605469 35.246094 C 52.34375 33.753906 54.269531 33.320312 55.570312 34.363281 C 56.617188 35.203125 56.851562 36.707031 56.109375 37.824219 C 53.148438 42.289062 45.96875 54.109375 41.429688 69.921875 C 41.394531 70.042969 41.214844 70.015625 41.222656 69.890625 Z M 41.222656 69.890625 "/>
<path style=" stroke:none;fill-rule:nonzero;fill:rgb(94.509804%,20.784314%,33.333333%);fill-opacity:1;" d="M 29.949219 69.886719 C 29.515625 64.171875 27.285156 41.742188 18.300781 28.054688 C 17.484375 26.8125 15.785156 26.515625 14.601562 27.421875 C 13.5 28.265625 13.269531 29.828125 14.082031 30.953125 C 17.222656 35.289062 24.523438 47.191406 29.738281 69.917969 C 29.769531 70.042969 29.957031 70.019531 29.949219 69.886719 Z M 29.949219 69.886719 "/>
<path style=" stroke:none;fill-rule:nonzero;fill:rgb(94.509804%,20.784314%,33.333333%);fill-opacity:1;" d="M 34.789062 69.898438 L 32.417969 25.082031 C 32.339844 23.601562 33.519531 22.359375 35 22.359375 C 36.484375 22.359375 37.667969 23.609375 37.582031 25.09375 L 35.003906 69.898438 C 34.996094 70.035156 34.796875 70.035156 34.789062 69.898438 Z M 34.789062 69.898438 "/>
</g>
</svg>
