<?xml version="1.0" encoding="UTF-8"?>
<svg xmlns="http://www.w3.org/2000/svg" xmlns:xlink="http://www.w3.org/1999/xlink" width="30pt" height="30pt" viewBox="0 0 30 30" version="1.1">
<g id="surface1">
<path style=" stroke:none;fill-rule:nonzero;fill:rgb(25.882353%,40.392157%,69.803922%);fill-opacity:1;" d="M 28.34375 0 L 1.65625 0 C 0.742188 0 0 0.742188 0 1.65625 L 0 28.34375 C 0 29.257812 0.742188 30 1.65625 30 L 28.34375 30 C 29.257812 30 30 29.257812 30 28.34375 L 30 1.65625 C 30 0.742188 29.257812 0 28.34375 0 Z M 28.34375 0 "/>
<path style=" stroke:none;fill-rule:nonzero;fill:rgb(100%,100%,100%);fill-opacity:1;" d="M 20.710938 30 L 20.710938 18.398438 L 24.625 18.398438 L 25.210938 13.859375 L 20.710938 13.859375 L 20.710938 10.964844 C 20.710938 9.652344 21.078125 8.757812 22.957031 8.757812 L 25.34375 8.757812 L 25.34375 4.710938 C 24.925781 4.652344 23.503906 4.53125 21.847656 4.53125 C 18.390625 4.53125 16.027344 6.640625 16.027344 10.515625 L 16.027344 13.859375 L 12.128906 13.859375 L 12.128906 18.398438 L 16.027344 18.398438 L 16.027344 30 Z M 20.710938 30 "/>
</g>
</svg>
