<?xml version="1.0" encoding="UTF-8"?>
<svg xmlns="http://www.w3.org/2000/svg" xmlns:xlink="http://www.w3.org/1999/xlink" width="70pt" height="70pt" viewBox="0 0 70 70" version="1.1">
<g id="surface1">
<path style=" stroke:none;fill-rule:nonzero;fill:rgb(76.862745%,63.529412%,98.823529%);fill-opacity:1;" d="M 31.761719 31.210938 C 29.335938 33.636719 34.960938 40.550781 38.660156 44.253906 C 41.308594 46.898438 49.066406 53.804688 51.703125 51.160156 C 54.367188 48.496094 47.503906 40.820312 44.800781 38.117188 C 42.09375 35.410156 34.417969 28.546875 31.761719 31.210938 Z M 31.761719 31.210938 "/>
<path style=" stroke:none;fill-rule:nonzero;fill:rgb(76.862745%,63.529412%,98.823529%);fill-opacity:1;" d="M 46.976562 35.398438 C 47.402344 35.824219 48.085938 35.824219 48.507812 35.398438 L 60.445312 23.464844 C 60.855469 23.035156 60.851562 22.359375 60.433594 21.941406 C 60.015625 21.523438 59.335938 21.515625 58.914062 21.929688 L 46.976562 33.863281 C 46.554688 34.289062 46.554688 34.976562 46.976562 35.398438 Z M 46.976562 35.398438 "/>
<path style=" stroke:none;fill-rule:nonzero;fill:rgb(76.862745%,63.529412%,98.823529%);fill-opacity:1;" d="M 66.640625 17.269531 L 68.039062 15.867188 C 68.453125 15.441406 68.445312 14.761719 68.027344 14.34375 C 67.609375 13.925781 66.933594 13.921875 66.507812 14.332031 L 65.105469 15.734375 L 63.699219 14.328125 C 63.277344 13.921875 62.597656 13.925781 62.179688 14.34375 C 61.761719 14.761719 61.757812 15.441406 62.167969 15.863281 L 63.570312 17.269531 L 62.167969 18.667969 C 61.757812 19.097656 61.761719 19.773438 62.179688 20.191406 C 62.597656 20.609375 63.277344 20.617188 63.699219 20.203125 L 65.105469 18.804688 L 66.507812 20.210938 C 66.933594 20.617188 67.609375 20.609375 68.027344 20.191406 C 68.445312 19.773438 68.453125 19.097656 68.039062 18.675781 Z M 66.640625 17.269531 "/>
<path style=" stroke:none;fill-rule:nonzero;fill:rgb(76.862745%,63.529412%,98.823529%);fill-opacity:1;" d="M 56.6875 36.960938 L 51.734375 40.433594 C 51.28125 40.789062 51.183594 41.4375 51.515625 41.910156 C 51.84375 42.386719 52.492188 42.519531 52.976562 42.210938 L 57.9375 38.738281 C 58.425781 38.394531 58.546875 37.71875 58.203125 37.222656 C 57.855469 36.734375 57.183594 36.617188 56.6875 36.957031 Z M 56.6875 36.960938 "/>
<path style=" stroke:none;fill-rule:nonzero;fill:rgb(76.862745%,63.529412%,98.823529%);fill-opacity:1;" d="M 65.679688 31.097656 L 60.65625 34.617188 C 60.160156 34.960938 60.042969 35.640625 60.390625 36.132812 C 60.730469 36.621094 61.410156 36.742188 61.898438 36.398438 L 66.925781 32.878906 C 67.253906 32.660156 67.429688 32.28125 67.398438 31.890625 C 67.371094 31.5 67.128906 31.152344 66.773438 30.988281 C 66.417969 30.828125 66 30.871094 65.679688 31.097656 Z M 65.679688 31.097656 "/>
<path style=" stroke:none;fill-rule:nonzero;fill:rgb(76.862745%,63.529412%,98.823529%);fill-opacity:1;" d="M 41.945312 30.636719 L 45.414062 25.683594 C 45.757812 25.191406 45.636719 24.515625 45.148438 24.171875 C 44.65625 23.828125 43.976562 23.949219 43.636719 24.441406 L 40.164062 29.394531 C 39.929688 29.710938 39.890625 30.125 40.054688 30.484375 C 40.21875 30.835938 40.558594 31.082031 40.949219 31.113281 C 41.347656 31.148438 41.722656 30.960938 41.945312 30.636719 Z M 41.945312 30.636719 "/>
<path style=" stroke:none;fill-rule:nonzero;fill:rgb(76.862745%,63.529412%,98.823529%);fill-opacity:1;" d="M 47.753906 21.71875 L 51.273438 16.695312 C 51.609375 16.199219 51.492188 15.53125 51.003906 15.191406 C 50.515625 14.847656 49.84375 14.964844 49.496094 15.445312 L 45.972656 20.476562 C 45.636719 20.96875 45.761719 21.636719 46.25 21.976562 C 46.738281 22.320312 47.40625 22.207031 47.753906 21.71875 Z M 47.753906 21.71875 "/>
<path style=" stroke:none;fill-rule:nonzero;fill:rgb(76.862745%,63.529412%,98.823529%);fill-opacity:1;" d="M 23.703125 47.910156 L 19.667969 56.34375 C 21.804688 58.800781 24.109375 61.109375 26.566406 63.25 L 35.003906 59.21875 C 30.789062 55.925781 26.992188 52.125 23.703125 47.910156 Z M 23.703125 47.910156 "/>
<path style=" stroke:none;fill-rule:nonzero;fill:rgb(76.862745%,63.529412%,98.823529%);fill-opacity:1;" d="M 29.621094 35.542969 L 24.765625 45.699219 C 28.296875 50.421875 32.480469 54.617188 37.195312 58.164062 L 47.363281 53.304688 C 41.503906 51 31.933594 41.574219 29.621094 35.542969 Z M 29.621094 35.542969 "/>
<path style=" stroke:none;fill-rule:nonzero;fill:rgb(76.862745%,63.529412%,98.823529%);fill-opacity:1;" d="M 18.652344 58.464844 L 14.664062 66.800781 C 14.46875 67.21875 14.550781 67.714844 14.875 68.039062 C 15.203125 68.363281 15.699219 68.453125 16.113281 68.25 L 24.445312 64.261719 C 22.402344 62.445312 20.46875 60.507812 18.652344 58.464844 Z M 18.652344 58.464844 "/>
<path style=" stroke:none;fill-rule:nonzero;fill:rgb(8.235294%,10.196078%,41.568627%);fill-opacity:1;" d="M 1.84375 3.207031 C 2.710938 3.472656 3.582031 3.722656 4.449219 3.964844 C 5.480469 8.578125 6.796875 13.125 8.398438 17.574219 C 8.527344 17.929688 8.84375 18.195312 9.21875 18.265625 C 9.597656 18.335938 9.984375 18.207031 10.238281 17.921875 C 13.347656 14.378906 16.234375 10.640625 18.875 6.726562 C 19.546875 6.796875 20.226562 6.863281 20.902344 6.917969 C 22.757812 11.253906 24.890625 15.460938 27.277344 19.53125 C 27.472656 19.863281 27.828125 20.070312 28.210938 20.070312 C 28.597656 20.070312 28.953125 19.863281 29.148438 19.53125 C 31.539062 15.460938 33.664062 11.246094 35.523438 6.910156 C 36.199219 6.859375 36.875 6.792969 37.554688 6.722656 C 40.191406 10.632812 43.078125 14.371094 46.191406 17.921875 C 46.441406 18.207031 46.832031 18.335938 47.207031 18.265625 C 47.585938 18.195312 47.894531 17.929688 48.023438 17.574219 C 49.625 13.125 50.945312 8.578125 51.976562 3.960938 C 52.84375 3.722656 53.710938 3.472656 54.578125 3.199219 C 54.953125 3.09375 55.234375 2.789062 55.320312 2.410156 C 55.410156 2.027344 55.285156 1.628906 55.003906 1.367188 C 54.714844 1.101562 54.308594 1.015625 53.933594 1.128906 C 37.183594 6.363281 19.242188 6.363281 2.496094 1.128906 C 1.921875 0.949219 1.3125 1.269531 1.132812 1.84375 C 0.953125 2.414062 1.269531 3.027344 1.84375 3.207031 Z M 49.605469 4.578125 C 48.78125 8.09375 47.78125 11.609375 46.597656 15.078125 C 44.25 12.304688 42.039062 9.414062 39.980469 6.421875 C 43.21875 5.984375 46.429688 5.371094 49.605469 4.578125 Z M 28.210938 7.226562 C 29.839844 7.226562 31.460938 7.167969 33.082031 7.078125 C 31.628906 10.367188 30.007812 13.625 28.210938 16.800781 C 26.414062 13.625 24.792969 10.367188 23.34375 7.078125 C 24.96875 7.167969 26.585938 7.226562 28.210938 7.226562 Z M 16.445312 6.421875 C 14.386719 9.414062 12.175781 12.304688 9.824219 15.078125 C 8.640625 11.609375 7.644531 8.09375 6.824219 4.578125 C 9.992188 5.371094 13.207031 5.984375 16.445312 6.421875 Z M 16.445312 6.421875 "/>
<path style=" stroke:none;fill-rule:nonzero;fill:rgb(8.235294%,10.196078%,41.568627%);fill-opacity:1;" d="M 53.929688 19.578125 C 37.179688 24.808594 19.238281 24.808594 2.492188 19.578125 C 2.117188 19.460938 1.710938 19.546875 1.421875 19.8125 C 1.140625 20.078125 1.015625 20.476562 1.101562 20.855469 C 1.1875 21.234375 1.46875 21.539062 1.84375 21.652344 C 2.710938 21.917969 3.582031 22.167969 4.449219 22.414062 C 5.480469 27.023438 6.796875 31.570312 8.398438 36.019531 C 8.527344 36.375 8.84375 36.644531 9.21875 36.714844 C 9.597656 36.785156 9.984375 36.652344 10.238281 36.367188 C 13.347656 32.824219 16.234375 29.085938 18.875 25.171875 C 19.546875 25.242188 20.226562 25.308594 20.902344 25.363281 C 22.757812 29.699219 24.890625 33.910156 27.277344 37.976562 C 27.472656 38.308594 27.828125 38.515625 28.210938 38.515625 C 28.597656 38.515625 28.953125 38.308594 29.148438 37.976562 C 31.539062 33.910156 33.664062 29.699219 35.523438 25.363281 C 36.199219 25.308594 36.875 25.242188 37.554688 25.171875 C 40.191406 29.085938 43.078125 32.824219 46.191406 36.371094 C 46.441406 36.660156 46.832031 36.789062 47.207031 36.71875 C 47.585938 36.648438 47.894531 36.382812 48.023438 36.023438 C 49.625 31.570312 50.945312 27.023438 51.976562 22.40625 C 52.84375 22.167969 53.710938 21.917969 54.578125 21.648438 C 54.953125 21.539062 55.234375 21.234375 55.320312 20.855469 C 55.410156 20.476562 55.285156 20.074219 55.003906 19.8125 C 54.714844 19.546875 54.308594 19.460938 53.933594 19.574219 Z M 9.824219 33.523438 C 8.640625 30.054688 7.644531 26.539062 6.824219 23.023438 C 9.992188 23.816406 13.207031 24.4375 16.445312 24.871094 C 14.382812 27.863281 12.175781 30.75 9.824219 33.523438 Z M 28.210938 35.25 C 26.414062 32.070312 24.792969 28.8125 23.34375 25.527344 C 24.96875 25.613281 26.589844 25.671875 28.210938 25.671875 C 29.835938 25.671875 31.460938 25.613281 33.082031 25.527344 C 31.628906 28.8125 30.007812 32.070312 28.210938 35.25 Z M 46.597656 33.523438 C 44.25 30.75 42.039062 27.859375 39.980469 24.871094 C 43.21875 24.429688 46.429688 23.816406 49.605469 23.023438 C 48.78125 26.539062 47.78125 30.054688 46.597656 33.523438 Z M 46.597656 33.523438 "/>
</g>
</svg>
