<?xml version="1.0" encoding="UTF-8"?>
<svg xmlns="http://www.w3.org/2000/svg" xmlns:xlink="http://www.w3.org/1999/xlink" width="30pt" height="30pt" viewBox="0 0 30 30" version="1.1">
<g id="surface1">
<path style=" stroke:none;fill-rule:nonzero;fill:rgb(100%,0%,0%);fill-opacity:1;" d="M 29.382812 7.796875 C 29.035156 6.511719 28.023438 5.5 26.738281 5.152344 C 24.390625 4.511719 15 4.511719 15 4.511719 C 15 4.511719 5.609375 4.511719 3.261719 5.128906 C 2 5.476562 0.964844 6.511719 0.617188 7.796875 C 0 10.144531 0 15.015625 0 15.015625 C 0 15.015625 0 19.90625 0.617188 22.230469 C 0.964844 23.515625 1.976562 24.527344 3.261719 24.875 C 5.632812 25.515625 15 25.515625 15 25.515625 C 15 25.515625 24.390625 25.515625 26.738281 24.898438 C 28.023438 24.554688 29.035156 23.539062 29.382812 22.253906 C 30 19.90625 30 15.039062 30 15.039062 C 30 15.039062 30.023438 10.144531 29.382812 7.796875 Z M 29.382812 7.796875 "/>
<path style=" stroke:none;fill-rule:nonzero;fill:rgb(100%,100%,100%);fill-opacity:1;" d="M 12.011719 19.511719 L 19.820312 15.015625 L 12.011719 10.515625 Z M 12.011719 19.511719 "/>
</g>
</svg>
